<svg style="width: 100%; height: 100%;" viewBox="0 0 1000 1000" fill="none" xmlns="http://www.w3.org/2000/svg">
<path d="M920.458 629.213C923.354 613.791 923.354 597.819 920.458 582.397L948.863 565.873C952.173 564.083 953.689 560.228 952.586 556.51C945.14 532.827 932.454 511.203 915.907 493.302C913.425 490.549 909.289 489.86 905.979 491.788L877.574 508.179C865.572 497.99 851.783 490.003 836.891 484.771V451.862C836.891 448.144 834.133 444.839 830.548 444.151C806.003 438.643 780.907 438.781 757.466 444.151C753.88 444.839 751.261 448.144 751.261 451.862V484.776C736.368 490.009 722.579 497.995 710.577 508.185L682.073 491.738C678.901 489.811 674.764 490.499 672.144 493.253C655.598 511.153 642.912 532.777 635.598 556.461C634.495 560.178 636.012 564.034 639.183 565.824L667.589 582.347C664.831 597.769 664.831 613.742 667.589 629.164L639.183 645.687C635.874 647.477 634.495 651.333 635.598 655.05C642.906 678.734 655.598 700.214 672.144 718.258C674.764 721.012 678.763 721.7 682.073 719.773L710.621 703.381C722.623 713.571 736.412 721.557 751.305 726.79V759.704C751.305 763.422 753.925 766.727 757.51 767.415C782.198 772.923 807.15 772.785 830.592 767.415C834.177 766.727 836.935 763.422 836.935 759.704V726.79C851.827 721.557 865.616 713.571 877.618 703.381L906.023 719.773C909.195 721.7 913.47 721.012 915.952 718.258C932.498 700.358 945.184 678.734 952.63 655.05C953.734 651.333 952.217 647.477 948.907 645.687L920.458 629.213ZM794.15 659.176C764.641 659.176 740.648 635.217 740.648 605.75C740.648 576.283 764.641 552.324 794.15 552.324C823.659 552.324 847.652 576.283 847.652 605.75C847.652 635.217 823.714 659.176 794.15 659.176Z" fill="#2075CB"/>
<path opacity="0.4" fill-rule="evenodd" clip-rule="evenodd" d="M635.3 359C635.3 436.869 572.091 500 494.1 500C486.582 500 479.2 499.413 472 498.283V310C472 298.954 463.046 290 452 290H370.932C395.124 247.03 441.213 218 494.1 218C572.091 218 635.3 281.131 635.3 359ZM250.003 710C248.03 720.999 247 732.323 247 743.886C247 764.926 264.121 782 285.234 782H702.922C709.239 782 714.946 780.098 720.197 777.387C717.703 771.866 715.938 766.027 715.938 759.748V749.645C713.398 748.268 710.895 746.826 708.427 745.316L699.803 750.265C693.182 754.125 685.65 756.161 678.016 756.161C666.202 756.161 654.707 751.212 646.059 742.116C625.75 719.985 610.439 693.482 601.691 665.117C595.787 645.222 604.276 624.502 621.36 615.282L630.205 610.139C630.131 607.251 630.131 604.364 630.205 601.481L621.76 596.567C608.192 588.908 600.36 574.911 600.095 559.797C584.115 555.409 567.348 552.875 550.028 552.875H472V690C472 701.046 463.046 710 452 710H250.003Z" fill="#2075CB"/>
<rect x="62" y="300" width="400" height="400" rx="15" fill="#2075CB"/>
<path d="M237.4 499.2C245.4 501.733 251.667 506 256.2 512C260.733 517.867 263 525.133 263 533.8C263 546.067 258.2 555.533 248.6 562.2C239.133 568.733 225.267 572 207 572H134.6V432H203C220.067 432 233.133 435.267 242.2 441.8C251.4 448.333 256 457.2 256 468.4C256 475.2 254.333 481.267 251 486.6C247.8 491.933 243.267 496.133 237.4 499.2ZM166.8 456.4V489.4H199C207 489.4 213.067 488 217.2 485.2C221.333 482.4 223.4 478.267 223.4 472.8C223.4 467.333 221.333 463.267 217.2 460.6C213.067 457.8 207 456.4 199 456.4H166.8ZM204.6 547.6C213.133 547.6 219.533 546.2 223.8 543.4C228.2 540.6 230.4 536.267 230.4 530.4C230.4 518.8 221.8 513 204.6 513H166.8V547.6H204.6ZM395.93 546V572H287.53V432H393.33V458H319.73V488.4H384.73V513.6H319.73V546H395.93Z" fill="white"/>
</svg>
