<svg style="width: 100%; height: 100%;" viewBox="0 0 1000 1000" fill="none" xmlns="http://www.w3.org/2000/svg">
<path d="M475 227C475 218.716 481.716 212 490 212H810C818.284 212 825 218.716 825 227V242H475V227Z" fill="#84CC16"/>
<path d="M450 262C450 253.716 456.716 247 465 247H835C843.284 247 850 253.716 850 262V277H450V262Z" fill="#A3E635"/>
<path fill-rule="evenodd" clip-rule="evenodd" d="M350 710V772C350 780.284 356.716 787 365 787H935C943.284 787 950 780.284 950 772V402C950 393.716 943.284 387 935 387H472V690C472 701.046 463.046 710 452 710H350Z" fill="#A3E635"/>
<path fill-rule="evenodd" clip-rule="evenodd" d="M472 382H925V367C925 358.716 918.284 352 910 352H472V382Z" fill="#BEF264"/>
<path fill-rule="evenodd" clip-rule="evenodd" d="M472 347H900V332C900 323.716 893.284 317 885 317H472V347Z" fill="#65A30D"/>
<path fill-rule="evenodd" clip-rule="evenodd" d="M426.73 290H452C463.046 290 472 298.954 472 310V312H875V297C875 288.716 868.284 282 860 282H440C434.244 282 429.245 285.242 426.73 290Z" fill="#BEF264"/>
<rect x="62" y="300" width="400" height="400" rx="15" fill="#84CC16"/>
<path d="M154.6 572V432H187V545.6H257.2V572H154.6ZM320.717 574.4C309.517 574.4 298.784 572.933 288.517 570C278.251 566.933 269.984 563 263.717 558.2L274.717 533.8C280.717 538.067 287.784 541.6 295.917 544.4C304.184 547.067 312.517 548.4 320.917 548.4C327.317 548.4 332.451 547.8 336.317 546.6C340.317 545.267 343.251 543.467 345.117 541.2C346.984 538.933 347.917 536.333 347.917 533.4C347.917 529.667 346.451 526.733 343.517 524.6C340.584 522.333 336.717 520.533 331.917 519.2C327.117 517.733 321.784 516.4 315.917 515.2C310.184 513.867 304.384 512.267 298.517 510.4C292.784 508.533 287.517 506.133 282.717 503.2C277.917 500.267 273.984 496.4 270.917 491.6C267.984 486.8 266.517 480.667 266.517 473.2C266.517 465.2 268.651 457.933 272.917 451.4C277.317 444.733 283.851 439.467 292.517 435.6C301.317 431.6 312.317 429.6 325.517 429.6C334.317 429.6 342.984 430.667 351.517 432.8C360.051 434.8 367.584 437.867 374.117 442L364.117 466.6C357.584 462.867 351.051 460.133 344.517 458.4C337.984 456.533 331.584 455.6 325.317 455.6C319.051 455.6 313.917 456.333 309.917 457.8C305.917 459.267 303.051 461.2 301.317 463.6C299.584 465.867 298.717 468.533 298.717 471.6C298.717 475.2 300.184 478.133 303.117 480.4C306.051 482.533 309.917 484.267 314.717 485.6C319.517 486.933 324.784 488.267 330.517 489.6C336.384 490.933 342.184 492.467 347.917 494.2C353.784 495.933 359.117 498.267 363.917 501.2C368.717 504.133 372.584 508 375.517 512.8C378.584 517.6 380.117 523.667 380.117 531C380.117 538.867 377.917 546.067 373.517 552.6C369.117 559.133 362.517 564.4 353.717 568.4C345.051 572.4 334.051 574.4 320.717 574.4Z" fill="white"/>
</svg>
