<svg width="100%" height="100%" viewBox="0 0 1200 1200" fill="none" xmlns="http://www.w3.org/2000/svg">
<g clip-path="url(#clip0_401_3)">
<rect width="1200" height="1200" rx="115" fill="white"/>
<path fill-rule="evenodd" clip-rule="evenodd" d="M1200 0H0V1200H1200V0ZM694.14 770.06C694.14 852.74 657.48 905 591.96 934.64L701.94 1100H575.58L488.22 965.84C478.08 967.4 467.16 968.18 457.02 968.18H419.58V1100H310.38V569.6H457.02C605.22 569.6 694.14 640.58 694.14 770.06ZM419.58 665.54V873.02H453.9C542.82 873.02 581.82 844.94 581.82 770.06C581.82 695.18 541.26 665.54 453.9 665.54H419.58ZM1123.34 954.92C1123.34 1053.2 1046.12 1107.02 942.381 1107.02C840.981 1107.02 775.461 1058.66 743.481 995.48L832.401 944C855.801 982.22 886.221 1010.3 940.041 1010.3C985.281 1010.3 1014.14 987.68 1014.14 956.48C1014.14 919.04 984.501 905.78 934.581 883.94L907.281 872.24C828.501 838.7 776.241 796.58 776.241 707.66C776.241 625.76 838.641 563.36 936.141 563.36C1005.56 563.36 1055.48 587.54 1091.36 650.72L1006.34 705.32C987.621 671.78 967.341 658.52 936.141 658.52C904.161 658.52 883.881 678.8 883.881 705.32C883.881 738.08 904.161 751.34 950.961 771.62L978.261 783.32C1071.08 823.1 1123.34 863.66 1123.34 954.92Z" fill="#40B883"/>
</g>
<defs>
<clipPath id="clip0_401_3">
<rect width="1200" height="1200" rx="115" fill="white"/>
</clipPath>
</defs>
</svg>
