<svg style="width: 100%; height: 100%;" viewBox="0 0 1000 1000" fill="none" xmlns="http://www.w3.org/2000/svg">
<g clip-path="url(#clip0_302_106)">
<rect x="731.413" y="202.307" width="126.925" height="50.7399" fill="white"/>
<rect x="731.413" y="202.307" width="126.925" height="50.7399" fill="white"/>
<rect x="731.413" y="202.307" width="126.925" height="50.7399" fill="white"/>
<path d="M724.759 267H860.241C872.71 267 882.821 256.925 882.821 244.5V135.125C882.821 119.581 870.214 107 854.596 107H802.536V77C802.536 71.4762 798.02 67 792.5 67C786.98 67 782.464 71.4762 782.464 77V107H730.404C714.786 107 702.179 119.581 702.179 135.125V244.5C702.179 256.938 712.296 267 724.759 267ZM842.679 237H822.607V217H842.679V237ZM832.643 147C843.695 147 852.714 155.988 852.714 167C852.714 178.012 843.695 187 832.643 187C821.591 187 812.571 178.012 812.571 167C812.571 155.988 821.604 147 832.643 147ZM762.393 237H742.321V217H762.393V237ZM782.464 217H802.536V237H782.464V217ZM752.357 147C763.409 147 772.429 155.988 772.429 167C772.429 178.012 763.396 187 752.357 187C741.318 187 732.286 178 732.286 167C732.286 156 741.318 147 752.357 147ZM929.738 150.312C927.606 148.188 924.721 147 921.145 147H902.893V227H921.145C924.125 227 927.026 225.828 929.143 223.719C931.259 221.609 933 218.75 933 215.75V158.25C933 155.312 931.808 152.375 929.738 150.312ZM822.607 347C817.04 347 812.571 351.453 812.571 357C812.571 362.547 817.04 367 822.607 367C828.174 367 832.643 362.547 832.643 357C832.643 351.453 828.189 347 822.607 347ZM872.786 287H712.214C678.971 287 652 313.875 652 347V367C652 378.013 661.02 387 672.071 387H732.286V347C732.286 335.987 741.305 327 752.357 327H832.643C843.695 327 852.714 335.987 852.714 347V387H912.929C923.98 387 933 378.013 933 367V347C933 313.875 906.029 287 872.786 287ZM762.393 347C756.81 347 752.357 351.438 752.357 357V387H772.429V357C772.429 351.438 767.975 347 762.393 347ZM662.726 227H682.107V147H662.726C660.311 147 657.41 148.188 655.293 150.312C653.176 152.438 652 155.312 652 158.25V215.75C652 218.719 653.176 221.609 655.293 223.719C657.41 225.828 660.311 227 662.726 227Z" fill="#5B21B6"/>
</g>
<rect x="489.239" y="519.163" width="235.331" height="94.186" fill="white"/>
<rect x="489.239" y="519.163" width="235.331" height="94.186" fill="white"/>
<rect x="489.239" y="519.163" width="235.331" height="94.186" fill="white"/>
<path fill-rule="evenodd" clip-rule="evenodd" d="M769.964 597.484C769.964 620.548 751.218 639.25 728.098 639.25H476.902C475.244 639.25 473.608 639.154 472 638.967V344.53C476.857 343.047 482.018 342.25 487.368 342.25H583.893V286.562C583.893 276.309 592.266 268 602.5 268C612.734 268 621.107 276.309 621.107 286.562V342.25H717.632C746.589 342.25 769.964 365.604 769.964 394.457V597.484ZM373.722 710C354.096 730.074 342 757.509 342 787.75V824.875C342 845.317 358.723 862 379.214 862H490.857V787.75C490.857 767.308 507.58 750.625 528.071 750.625H676.929C697.42 750.625 714.143 767.308 714.143 787.75V862H825.786C846.277 862 863 845.317 863 824.875V787.75C863 726.262 812.993 676.375 751.357 676.375H472V694.25C472 702.948 464.948 710 456.25 710H373.722ZM714.143 453.625C714.143 433.183 697.42 416.5 676.929 416.5C656.461 416.5 639.714 433.183 639.714 453.625C639.714 474.067 656.437 490.75 676.929 490.75C697.42 490.75 714.143 474.067 714.143 453.625ZM565.286 453.625C565.286 433.183 548.563 416.5 528.071 416.5C507.604 416.5 490.857 433.206 490.857 453.625C490.857 474.044 507.604 490.75 528.071 490.75C548.539 490.75 565.286 474.067 565.286 453.625ZM658.321 583.562H695.536V546.438H658.321V583.562ZM841.02 416.5C847.649 416.5 852.999 418.704 856.953 422.649C860.79 426.477 863 431.93 863 437.383V544.117C863 549.686 859.773 554.994 855.848 558.909C851.923 562.825 846.544 565 841.02 565H807.179V416.5H841.02ZM509.464 583.562H546.679V546.438H509.464V583.562ZM621.107 546.438H583.893V583.562H621.107V546.438ZM639.714 806.312C639.714 796.016 648 787.75 658.321 787.75C668.672 787.75 676.929 796.016 676.929 806.312C676.929 816.609 668.643 824.875 658.321 824.875C648 824.875 639.714 816.609 639.714 806.312ZM528.071 806.312C528.071 795.987 536.328 787.75 546.679 787.75C557.029 787.75 565.286 795.987 565.286 806.312V862H528.071V806.312Z" fill="#8B5CF6"/>
<path d="M62 315C62 306.716 68.7157 300 77 300H447C455.284 300 462 306.716 462 315V685C462 693.284 455.284 700 447 700H77C68.7157 700 62 693.284 62 685V315Z" fill="#5B21B6"/>
<path d="M209.8 572L182.8 533H181.2H153V572H120.6V432H181.2C193.6 432 204.333 434.067 213.4 438.2C222.6 442.333 229.667 448.2 234.6 455.8C239.533 463.4 242 472.4 242 482.8C242 493.2 239.467 502.2 234.4 509.8C229.467 517.267 222.4 523 213.2 527L244.6 572H209.8ZM209.2 482.8C209.2 474.933 206.667 468.933 201.6 464.8C196.533 460.533 189.133 458.4 179.4 458.4H153V507.2H179.4C189.133 507.2 196.533 505.067 201.6 500.8C206.667 496.533 209.2 490.533 209.2 482.8Z" fill="white"/>
<path d="M335.47 574.4C320.937 574.4 307.804 571.267 296.07 565C284.47 558.733 275.337 550.133 268.67 539.2C262.137 528.133 258.87 515.733 258.87 502C258.87 488.267 262.137 475.933 268.67 465C275.337 453.933 284.47 445.267 296.07 439C307.804 432.733 320.937 429.6 335.47 429.6C350.004 429.6 363.07 432.733 374.67 439C386.27 445.267 395.404 453.933 402.07 465C408.737 475.933 412.07 488.267 412.07 502C412.07 515.733 408.737 528.133 402.07 539.2C395.404 550.133 386.27 558.733 374.67 565C363.07 571.267 350.004 574.4 335.47 574.4ZM335.47 546.8C343.737 546.8 351.204 544.933 357.87 541.2C364.537 537.333 369.737 532 373.47 525.2C377.337 518.4 379.27 510.667 379.27 502C379.27 493.333 377.337 485.6 373.47 478.8C369.737 472 364.537 466.733 357.87 463C351.204 459.133 343.737 457.2 335.47 457.2C327.204 457.2 319.737 459.133 313.07 463C306.404 466.733 301.137 472 297.27 478.8C293.537 485.6 291.67 493.333 291.67 502C291.67 510.667 293.537 518.4 297.27 525.2C301.137 532 306.404 537.333 313.07 541.2C319.737 544.933 327.204 546.8 335.47 546.8Z" fill="white"/>
<defs>
<clipPath id="clip0_302_106">
<rect width="281" height="320" fill="white" transform="translate(652 67)"/>
</clipPath>
</defs>
</svg>
