<svg style="width: 100%; height: 100%;" viewBox="0 0 1000 1000" fill="none" xmlns="http://www.w3.org/2000/svg">
<rect x="360" y="70" width="600" height="200" rx="10" fill="#EDEDED"/>
<rect x="360" y="730" width="600" height="200" rx="10" fill="#EDEDED"/>
<path fill-rule="evenodd" clip-rule="evenodd" d="M472 490H950C955.523 490 960 485.523 960 480V300C960 294.477 955.523 290 950 290H452C463.046 290 472 298.954 472 310V490Z" fill="#EDEDED"/>
<path fill-rule="evenodd" clip-rule="evenodd" d="M452 710H950C955.523 710 960 705.523 960 700V520C960 514.477 955.523 510 950 510H472V690C472 701.046 463.046 710 452 710Z" fill="#EDEDED"/>
<rect x="62" y="300" width="400" height="400" rx="15" fill="#10B981"/>
<path d="M179.6 574.4C168.533 574.4 157.8 572.933 147.4 570C137.133 566.933 128.867 563 122.6 558.2L133.6 533.8C139.6 538.2 146.733 541.733 155 544.4C163.267 547.067 171.533 548.4 179.8 548.4C189 548.4 195.8 547.067 200.2 544.4C204.6 541.6 206.8 537.933 206.8 533.4C206.8 530.067 205.467 527.333 202.8 525.2C200.267 522.933 196.933 521.133 192.8 519.8C188.8 518.467 183.333 517 176.4 515.4C165.733 512.867 157 510.333 150.2 507.8C143.4 505.267 137.533 501.2 132.6 495.6C127.8 490 125.4 482.533 125.4 473.2C125.4 465.067 127.6 457.733 132 451.2C136.4 444.533 143 439.267 151.8 435.4C160.733 431.533 171.6 429.6 184.4 429.6C193.333 429.6 202.067 430.667 210.6 432.8C219.133 434.933 226.6 438 233 442L223 466.6C210.067 459.267 197.133 455.6 184.2 455.6C175.133 455.6 168.4 457.067 164 460C159.733 462.933 157.6 466.8 157.6 471.6C157.6 476.4 160.067 480 165 482.4C170.067 484.667 177.733 486.933 188 489.2C198.667 491.733 207.4 494.267 214.2 496.8C221 499.333 226.8 503.333 231.6 508.8C236.533 514.267 239 521.667 239 531C239 539 236.733 546.333 232.2 553C227.8 559.533 221.133 564.733 212.2 568.6C203.267 572.467 192.4 574.4 179.6 574.4ZM389.539 432V572H362.939L293.139 487V572H261.139V432H287.939L357.539 517V432H389.539Z" fill="white"/>
<rect x="714.815" y="762.82" width="30" height="140" transform="rotate(45 714.815 762.82)" fill="#10B981"/>
<rect x="605.213" y="808.782" width="45" height="30" transform="rotate(45 605.213 808.782)" fill="#0B855D"/>
<rect x="714.815" y="542.82" width="30" height="140" transform="rotate(45 714.815 542.82)" fill="#10B981"/>
<rect x="605.213" y="588.782" width="45" height="30" transform="rotate(45 605.213 588.782)" fill="#0B855D"/>
<rect x="714.815" y="322.82" width="30" height="140" transform="rotate(45 714.815 322.82)" fill="#10B981"/>
<rect x="605.213" y="368.782" width="45" height="30" transform="rotate(45 605.213 368.782)" fill="#0B855D"/>
<rect x="714.815" y="102.82" width="30" height="140" transform="rotate(45 714.815 102.82)" fill="#10B981"/>
<rect x="605.213" y="148.782" width="45" height="30" transform="rotate(45 605.213 148.782)" fill="#0B855D"/>
</svg>
