<svg width="100%" height="100%" viewBox="0 0 1200 1200" fill="none" xmlns="http://www.w3.org/2000/svg">
<g clip-path="url(#clip0_401_7)">
<rect width="1200" height="1200" rx="115" fill="white"/>
<path fill-rule="evenodd" clip-rule="evenodd" d="M1200 0H0V1200H1200V0ZM540.48 1100H431.28V665.54H279.96V569.6H691.8V665.54H540.48V1100ZM1102.01 954.92C1102.01 1053.2 1024.79 1107.02 921.053 1107.02C819.653 1107.02 754.133 1058.66 722.153 995.48L811.073 944C834.473 982.22 864.893 1010.3 918.713 1010.3C963.953 1010.3 992.813 987.68 992.813 956.48C992.813 919.04 963.173 905.78 913.253 883.94L885.953 872.24C807.173 838.7 754.913 796.58 754.913 707.66C754.913 625.76 817.313 563.36 914.813 563.36C984.233 563.36 1034.15 587.54 1070.03 650.72L985.013 705.32C966.293 671.78 946.013 658.52 914.813 658.52C882.833 658.52 862.553 678.8 862.553 705.32C862.553 738.08 882.833 751.34 929.633 771.62L956.933 783.32C1049.75 823.1 1102.01 863.66 1102.01 954.92Z" fill="#3178C6"/>
</g>
<defs>
<clipPath id="clip0_401_7">
<rect width="1200" height="1200" rx="115" fill="white"/>
</clipPath>
</defs>
</svg>
